# xmcd
#
# Track frame offsets:
#	150
#	14025
#	27300
#	39787
#	53475
#	67275
#	82425
#	97312
#	108900
#	123825
#	136950
#	151800
#	166500
#	181275
#	194062
#	207375
#
# Disc length: 2949 seconds
#
# Revision: 0
# Processed by: cddbd v1.5PL3 Copyright (c) Steve Scherf et al.
# Submitted via: dBpowerAMP V4.0
#
DISCID=e00b8310
DTITLE=Billie Holiday - Rare recordings Vol. 4
DYEAR=1900
DGENRE=
TTITLE0=I´ll never be the same
TTITLE1=Let´s do it
TTITLE2=I can´t believe that you are in love with me
TTITLE3=The blues are brewin´
TTITLE4=Miss brown to you
TTITLE5=It´like reaching for the moon
TTITLE6=Pennie from heaven
TTITLE7=Who wants love?
TTITLE8=Georgia on my mind
TTITLE9=A sailboat in the moonlight
TTITLE10=Now or never
TTITLE11=Ypu can´t lose a broken heart
TTITLE12=Eeny Meeny Miney Mo
TTITLE13=One, Two , Button Your shoe
TTITLE14=Why i was born
TTITLE15=If dreams come true
EXTD=
EXTT0=
EXTT1=
EXTT2=
EXTT3=
EXTT4=
EXTT5=
EXTT6=
EXTT7=
EXTT8=
EXTT9=
EXTT10=
EXTT11=
EXTT12=
EXTT13=
EXTT14=
EXTT15=
PLAYORDER=
